<svg xmlns="http://www.w3.org/2000/svg" viewBox="18 18 44 44" fill="#ffffff" role="img" aria-label="Daraz">
  <path d="M51.3612 25.6913L41.0785 19.7668C40.4778 19.4038 39.9968 19.6461 39.9968 20.3677V32.9999L50.2188 38.8944C50.8204 39.2575 50.8204 39.7967 50.2188 40.1579L41.0785 45.4225C40.4778 45.7855 39.9968 45.5432 39.9968 44.8216V32.9999L28.6352 39.5561C28.1815 39.8284 28 40.128 28 40.639V53.2104C28 53.7214 28.1815 54.0273 28.6352 54.2932L39.3689 60.4881C39.8226 60.7605 40.1801 60.7605 40.6311 60.4881L51.3648 54.2932C51.8185 54.0209 52 53.7214 52 53.2104V26.7714C51.9927 26.2631 51.8122 25.9618 51.3612 25.6913Z"/>
</svg>
